<svg width="152" height="141" viewBox="0 0 152 141" fill="none" xmlns="http://www.w3.org/2000/svg">
<g id="testimonial 1" clip-path="url(#clip0_71_912)">
<path id="Vector" d="M225 27.3213V28.8594C224.104 64.4287 201.151 93.9863 166.891 103.487C166.828 103.504 166.772 103.54 166.731 103.589C166.69 103.639 166.666 103.7 166.663 103.764C166.531 105.481 166.465 107.201 166.465 108.923C166.453 117.709 166.444 126.496 166.438 135.282C166.438 138.327 165.393 140.274 162.242 140.674H162.022C160.66 140.486 159.491 139.906 158.515 138.934C147.628 128.067 136.749 117.192 125.877 106.309C125.8 106.232 125.709 106.171 125.609 106.13C125.508 106.088 125.401 106.067 125.292 106.067C110.536 106.067 95.7612 106.067 80.9692 106.067C77.2075 106.067 74.2808 105.978 72.189 105.799C31.3374 102.336 1.15576 69.7417 0 28.8066V26.7192C0.333984 13.4682 3.59473 1.28368 9.78223 -9.83449C12.0015 -13.8247 18.0703 -12.2075 17.9341 -7.59327C17.9106 -6.83448 17.6045 -5.89552 17.0156 -4.77638C-6.30176 39.5029 22.7109 92.4306 72.1099 96.9834C74.1167 97.1709 77.0435 97.2661 80.8901 97.269C95.7114 97.2866 110.533 97.2983 125.354 97.3042C128.272 97.3042 129.582 97.4668 131.546 99.4355C140.186 108.081 148.824 116.731 157.46 125.385C157.668 125.593 157.77 125.551 157.764 125.258C157.638 118.215 157.573 111.159 157.57 104.089C157.566 100.503 157.557 96.6802 161.082 95.876C179.401 91.6953 193.758 82.0259 204.152 66.8677C212.528 54.6509 216.875 39.4897 216.053 24.522C214.229 -8.83253 189.527 -35.6743 156.546 -40.5918C152.112 -41.251 147.155 -41.2598 142.453 -41.3301C141.12 -41.3506 140.146 -41.5103 139.531 -41.8091C136.371 -43.3472 136.138 -47.7505 139.179 -49.4072C139.979 -49.8408 141.207 -50.0635 142.862 -50.0752C147.775 -50.1104 151.57 -49.9902 154.248 -49.7149C171.141 -47.9746 186.957 -41.1411 199.384 -29.6626C215.708 -14.5835 224.247 4.41112 225 27.3213Z" fill="white"/>
<path id="Vector_2" d="M166.557 -6.31885H58.4429C56.0401 -6.31885 54.0923 -4.37102 54.0923 -1.96826V-1.88916C54.0923 0.513602 56.0401 2.46143 58.4429 2.46143H166.557C168.96 2.46143 170.908 0.513602 170.908 -1.88916V-1.96826C170.908 -4.37102 168.96 -6.31885 166.557 -6.31885Z" fill="white"/>
<path id="Vector_3" d="M166.557 17.0864H58.4429C56.0401 17.0864 54.0923 19.0342 54.0923 21.437V21.5161C54.0923 23.9189 56.0401 25.8667 58.4429 25.8667H166.557C168.96 25.8667 170.908 23.9189 170.908 21.5161V21.437C170.908 19.0342 168.96 17.0864 166.557 17.0864Z" fill="white"/>
<path id="Vector_4" d="M166.443 40.5752C170.046 40.5752 172.042 44.4248 170.156 47.3911C169.066 49.1094 167.137 49.373 165.01 49.373C129.573 49.3818 94.1323 49.3818 58.689 49.373C57.9888 49.373 57.3223 49.2266 56.6895 48.9336C52.1675 46.8374 53.8286 40.5928 58.9439 40.5928C94.7769 40.5869 130.61 40.5811 166.443 40.5752Z" fill="white"/>
<path id="Vector_5" d="M84.1597 72.7256C86.56 72.7256 88.5059 70.7797 88.5059 68.3794C88.5059 65.9791 86.56 64.0332 84.1597 64.0332C81.7593 64.0332 79.8135 65.9791 79.8135 68.3794C79.8135 70.7797 81.7593 72.7256 84.1597 72.7256Z" fill="white"/>
<path id="Vector_6" d="M166.579 63.998H108.94C106.555 63.998 104.621 65.9321 104.621 68.3179V68.4497C104.621 70.8355 106.555 72.7695 108.94 72.7695H166.579C168.965 72.7695 170.899 70.8355 170.899 68.4497V68.3179C170.899 65.9321 168.965 63.998 166.579 63.998Z" fill="white"/>
</g>
<defs>
<clipPath id="clip0_71_912">
<rect width="225" height="225" fill="white" transform="translate(0 -84.3262)"/>
</clipPath>
</defs>
</svg>
