<svg width="15" height="16" viewBox="0 0 15 16" fill="none" xmlns="http://www.w3.org/2000/svg">
<g id="&#208;&#161;&#208;&#187;&#208;&#190;&#208;&#185; 2">
<g id="&#208;&#161;&#208;&#187;&#208;&#190;&#208;&#185; 1">
<path id="Vector" d="M6.4733 15.763H1.59118C0.634392 15.763 0.000415995 15.1266 0 14.166V4.35213C0 3.40029 0.635224 2.76143 1.58078 2.76101C3.53596 2.76101 5.49113 2.76101 7.44631 2.76101C7.83111 2.76351 8.0807 3.09024 7.9559 3.4303C7.92021 3.52905 7.85439 3.61403 7.76777 3.6732C7.68116 3.73237 7.57815 3.76272 7.47335 3.75994C7.19255 3.76244 6.91176 3.75994 6.63096 3.75994H1.59118C1.18767 3.75994 0.99714 3.94873 0.99714 4.3488V14.1798C0.99714 14.5715 1.18933 14.7632 1.58245 14.7632H11.3949C11.7893 14.7632 11.9798 14.5736 11.9798 14.1798C11.9798 12.2419 11.9798 10.3042 11.9798 8.36661C11.9771 8.28368 11.9852 8.20074 12.004 8.1199C12.035 8.00831 12.1045 7.91135 12.2002 7.84627C12.2959 7.78118 12.4114 7.75218 12.5264 7.76442C12.6438 7.77701 12.753 7.83031 12.8352 7.9151C12.9174 7.99989 12.9674 8.11083 12.9765 8.22867C12.979 8.25993 12.9765 8.29118 12.9765 8.32244C12.9765 10.2917 12.9765 12.2608 12.9765 14.2298C12.9765 14.9482 12.5393 15.5304 11.8638 15.7088C11.7074 15.7465 11.547 15.7642 11.3862 15.7617C9.74857 15.7645 8.11093 15.7649 6.4733 15.763Z" fill="#1A292D"/>
<path id="Vector_2" d="M13.2262 1.76041H10.7015C10.4727 1.76041 10.2439 1.76041 10.0155 1.76041C9.70975 1.75791 9.4872 1.54787 9.48512 1.26449C9.48304 0.981101 9.7031 0.763144 10.0064 0.763144C11.4881 0.761477 12.9696 0.761477 14.4508 0.763144C14.7612 0.763144 14.9738 0.971516 14.9742 1.28116C14.9758 2.77059 14.9758 4.26003 14.9742 5.74947C14.9763 5.81606 14.965 5.88241 14.9411 5.94456C14.9171 6.00672 14.8809 6.06342 14.8347 6.1113C14.7884 6.15919 14.7331 6.19728 14.6718 6.22332C14.6106 6.24936 14.5448 6.26282 14.4783 6.2629C14.195 6.2629 13.9791 6.04077 13.9791 5.73738C13.9769 4.71664 13.9769 3.6959 13.9791 2.67516V2.47929C13.9146 2.53972 13.8734 2.57597 13.8348 2.61473L6.92924 9.53016C6.65302 9.80688 6.36058 9.83938 6.13885 9.61809C5.91713 9.3968 5.94666 9.10175 6.22205 8.82628C8.51834 6.52364 10.8157 4.22169 13.1143 1.92044C13.1559 1.87876 13.2079 1.84126 13.2549 1.80208L13.2262 1.76041Z" fill="#1A292D"/>
</g>
</g>
</svg>
