<svg width="16" height="16" viewBox="0 0 16 16" fill="none" xmlns="http://www.w3.org/2000/svg">
<path id="star" d="M7.25672 0.586128C7.53172 -0.0670403 8.46832 -0.0670394 8.74332 0.58613L10.3663 4.44125C10.4823 4.71661 10.7445 4.90475 11.0454 4.92858L15.2582 5.26225C15.9719 5.31878 16.2614 6.19877 15.7175 6.65899L12.5079 9.37521C12.2786 9.56925 12.1784 9.8737 12.2485 10.1637L13.2291 14.2251C13.3952 14.9132 12.6375 15.4571 12.0264 15.0884L8.41965 12.9119C8.16202 12.7565 7.83802 12.7565 7.5804 12.9119L3.9736 15.0884C3.3625 15.4571 2.60477 14.9132 2.77091 14.2251L3.75155 10.1637C3.82159 9.8737 3.72147 9.56925 3.49221 9.37521L0.28245 6.65899C-0.261375 6.19877 0.0280544 5.31878 0.741835 5.26225L4.9547 4.92858C5.25561 4.90475 5.51774 4.71661 5.63367 4.44125L7.25672 0.586128Z" fill="#FAAD14"/>
</svg>
