<svg width="40" height="41" viewBox="0 0 40 41" fill="none" xmlns="http://www.w3.org/2000/svg">
<g id="yandex">
<path id="Vector" d="M37.7242 3.58323C39.565 5.63738 39.9944 8.10647 39.9953 10.7942C40.0016 20.3204 40.0016 27.0872 39.9953 31.0946C39.9888 35.6337 37.7158 39.2738 33.1391 40.3691C32.229 40.5868 30.9408 40.6476 29.8263 40.6485C23.1353 40.6516 16.4446 40.6526 9.75427 40.6513C7.44584 40.6513 5.08887 40.1177 3.26957 38.6168C0.523353 36.3514 -0.0432531 33.331 0.00248608 29.8572C0.0093314 29.37 0.0127555 29.1239 0.0127555 29.1189C0.0115109 23.2468 0.0105747 17.3747 0.00995244 11.5026C0.00995244 9.87464 0.043558 8.07469 0.60923 6.51679C1.88153 3.00942 4.70615 1.03284 8.4465 0.71229C8.90576 0.672416 9.48668 0.652479 10.1893 0.652479C16.6481 0.651233 23.1073 0.651855 29.5668 0.654347C30.1891 0.65497 30.8114 0.669612 31.4337 0.698271C33.828 0.809483 36.115 1.78796 37.7242 3.58323ZM20.8007 25.2985L18.9114 37.0897C18.9002 37.1589 18.9142 37.1645 18.9534 37.1066C21.5764 33.2282 24.2181 29.3554 26.5826 25.3518C27.526 23.7555 28.3262 22.1329 28.9834 20.4837C29.3406 19.5871 29.588 18.6573 29.7255 17.694C29.9987 16.5084 30.0625 15.3212 29.9168 14.1325C29.0599 7.12519 21.4504 3.27109 15.2868 6.57006C12.6134 7.99993 10.7288 10.6298 10.2042 13.6175C9.06258 20.1173 14.3273 25.7162 20.8007 25.2985Z" fill="white"/>
<path id="Vector_2" d="M29.7255 17.694C29.2258 19.6242 28.2765 21.2541 26.8775 22.5836C25.1911 24.1861 23.1655 25.091 20.8008 25.2985C14.3273 25.7162 9.06259 20.1173 10.2042 13.6175C10.7288 10.6298 12.6134 7.99993 15.2869 6.57007C21.4504 3.2711 29.0599 7.12519 29.9169 14.1325C30.0625 15.3212 29.9987 16.5084 29.7255 17.694ZM23.9904 15.3455C23.9904 14.8238 23.8877 14.3072 23.6883 13.8252C23.4889 13.3432 23.1966 12.9052 22.8281 12.5363C22.4597 12.1674 22.0222 11.8748 21.5408 11.6751C21.0594 11.4755 20.5434 11.3727 20.0223 11.3727C19.5012 11.3727 18.9852 11.4755 18.5037 11.6751C18.0223 11.8748 17.5849 12.1674 17.2164 12.5363C16.8479 12.9052 16.5556 13.3432 16.3562 13.8252C16.1568 14.3072 16.0541 14.8238 16.0541 15.3455C16.0541 16.3992 16.4722 17.4097 17.2164 18.1547C17.9605 18.8997 18.9698 19.3183 20.0223 19.3183C21.0747 19.3183 22.084 18.8997 22.8281 18.1547C23.5723 17.4097 23.9904 16.3992 23.9904 15.3455Z" fill="#FF3333"/>
<path id="Vector_3" d="M20.0222 19.3183C22.2138 19.3183 23.9904 17.5396 23.9904 15.3455C23.9904 13.1514 22.2138 11.3727 20.0222 11.3727C17.8307 11.3727 16.0541 13.1514 16.0541 15.3455C16.0541 17.5396 17.8307 19.3183 20.0222 19.3183Z" fill="white"/>
<path id="Vector_4" d="M29.7255 17.6941C29.588 18.6573 29.3406 19.5872 28.9834 20.4837C28.3263 22.1329 27.526 23.7556 26.5826 25.3518C24.2181 29.3554 21.5765 33.2282 18.9535 37.1066C18.9143 37.1646 18.9002 37.159 18.9114 37.0898L20.8008 25.2985C23.1655 25.0911 25.1911 24.1861 26.8775 22.5837C28.2765 21.2541 29.2258 19.6243 29.7255 17.6941Z" fill="#E00000"/>
</g>
</svg>
