<?xml version="1.0" encoding="UTF-8"?>
<svg xmlns="http://www.w3.org/2000/svg" width="47" height="54" viewBox="0 0 47 54" fill="none">
  <path fill-rule="evenodd" clip-rule="evenodd" d="M10.9144 0.153623C10.3804 0.344412 9.66038 1.10894 9.51437 1.63997C9.353 2.22658 9.3554 30.9937 9.51677 31.5824C9.6703 32.1421 10.4646 32.9442 11.0189 33.0992C11.3097 33.1804 14.2222 33.2162 20.6017 33.2165L29.7667 33.2171V42.5557V51.8944L29.5103 52.1532L29.254 52.4121H15.6667H2.07938L1.82308 52.1532L1.56667 51.8944V31.865C1.56667 11.8829 1.56719 11.8352 1.77911 11.563L1.99165 11.2902L4.60851 11.2588C7.21544 11.2273 7.2262 11.2263 7.42496 10.9782C7.69714 10.6385 7.67771 10.2072 7.37743 9.92229C7.13324 9.69058 7.0994 9.68837 4.3662 9.71938L1.60186 9.7507L1.0928 10.0687C0.722338 10.3002 0.504153 10.5404 0.291818 10.9509L0 11.515L0.000626721 31.7262C0.0010445 46.1806 0.0341533 52.0576 0.116769 52.3594C0.270302 52.9191 1.0646 53.7212 1.61889 53.8762C2.20931 54.0413 29.124 54.0413 29.7144 53.8762C30.2687 53.7212 31.063 52.9191 31.2166 52.3594C31.2802 52.1274 31.3324 51.6884 31.3327 51.3838L31.3333 50.8301L35.7983 50.8295C38.7406 50.8292 40.4058 50.7891 40.6811 50.7122C41.2354 50.5572 42.0297 49.7551 42.1832 49.1954C42.2468 48.9633 42.2991 48.2849 42.2994 47.6877C42.3 46.675 42.2828 46.5844 42.0436 46.343C41.7169 46.013 41.3164 46.013 40.9897 46.343C40.7514 46.5836 40.7333 46.6768 40.7333 47.6661C40.7333 48.6554 40.7153 48.7486 40.4769 48.9892L40.2206 49.2481H35.7769H31.3333V46.8751V44.5021L38.1483 44.5015C42.8093 44.5011 45.0954 44.464 45.3811 44.3842C45.6395 44.3119 45.9837 44.0807 46.2832 43.7783C46.5827 43.4758 46.8117 43.1283 46.8832 42.8673C46.9656 42.5666 46.999 37.3262 46.9994 24.6072L47 6.76894L46.7082 6.2049C46.4958 5.79442 46.2777 5.55417 45.9072 5.32267L45.398 5.00468L42.5024 4.97368L39.6068 4.94267L39.3867 5.22522C39.1135 5.576 39.1067 5.90843 39.3662 6.23221C39.5653 6.4808 39.5702 6.48122 42.2869 6.51255L45.0081 6.54387L45.2208 6.81682C45.4326 7.08882 45.4333 7.14682 45.4333 24.746V42.4023L45.1769 42.6612L44.9206 42.9201H38.1269H31.3333V40.4416V37.9631H36.5603H41.7873L42.0436 37.7042C42.3704 37.3743 42.3704 36.9699 42.0436 36.64L41.7873 36.3811H36.5603H31.3333V34.7991V33.2171H36.5603H41.7873L42.0436 32.9582C42.3704 32.6283 42.3704 32.2239 42.0436 31.894C41.788 31.6358 41.7812 31.6351 39.6292 31.6351H37.4712L37.5342 31.3978C37.5688 31.2672 37.5978 30.5553 37.5985 29.8158L37.6 28.4711H39.6936C41.7773 28.4711 41.7885 28.4698 42.0436 28.2122C42.3704 27.8823 42.3704 27.4779 42.0436 27.148C41.7885 26.8904 41.7773 26.8891 39.6936 26.8891H37.6V25.3071V23.7251H39.6936C41.7773 23.7251 41.7885 23.7238 42.0436 23.4662C42.3704 23.1363 42.3704 22.7319 42.0436 22.402C41.7885 22.1443 41.7773 22.1431 39.6936 22.1431H37.6V20.5611V18.9791H39.6936C41.7773 18.9791 41.7885 18.9778 42.0436 18.7201C42.1846 18.5778 42.3 18.3384 42.3 18.1881C42.3 18.0378 42.1846 17.7984 42.0436 17.656C41.7885 17.3983 41.7773 17.3971 39.6936 17.3971H37.6V15.8151V14.233H39.6936C41.7773 14.233 41.7885 14.2318 42.0436 13.9741C42.3704 13.6442 42.3704 13.2399 42.0436 12.91L41.7873 12.651H39.1667H36.5461L36.2897 12.91L36.0333 13.1688V22.1431V31.1174L35.7769 31.3762L35.5206 31.6351H23.5H11.4794L11.2231 31.3762L10.9667 31.1174V16.6061V2.09474L11.2231 1.83593L11.4794 1.57701H23.5H35.5206L35.7769 1.83593L36.0333 2.09474V6.32302V10.5513L36.2897 10.8101C36.6164 11.1401 37.0169 11.1401 37.3436 10.8101L37.6 10.5513L37.5994 6.3014C37.5991 3.51971 37.5588 1.90585 37.4832 1.62974C37.3297 1.07003 36.5354 0.267949 35.9811 0.112912C35.6863 0.0305423 31.9981 -0.0026798 23.4478 0.000167813C13.2726 0.00364822 11.2653 0.0282222 10.9144 0.153623ZM21.9106 3.53374C20.0883 3.97976 18.3338 5.46125 17.5451 7.21949C17.0263 8.37604 16.9721 8.80086 16.9737 11.7018C16.975 14.3772 16.9766 14.3957 17.2685 15.235C17.7227 16.5411 18.3567 17.4756 19.3708 18.3337C19.8377 18.7287 19.8598 18.9082 19.5125 19.481C19.2337 19.9408 18.6455 20.2717 17.022 20.8823C14.8753 21.6897 14.0472 22.236 13.3813 23.2837C12.7046 24.3485 12.6088 24.8137 12.5584 27.279L12.5128 29.5146L12.7794 29.7838L13.0461 30.0531H23.5H33.9539L34.2103 29.7942C34.4634 29.5386 34.4667 29.5117 34.4649 27.6585C34.4621 24.7988 34.145 23.6905 33.0078 22.5649C32.2877 21.8523 31.7225 21.5384 29.978 20.8823C27.9456 20.1179 27.4945 19.8046 27.2654 18.9982C27.1873 18.7233 27.2084 18.6519 27.4062 18.521C27.8389 18.2348 28.7344 17.2421 29.0872 16.6577C29.2801 16.3382 29.5706 15.6975 29.7328 15.2339L30.0278 14.3912L30.0254 11.5964C30.0231 8.8382 30.0193 8.79032 29.7393 7.94953C29.0153 5.77554 27.17 4.03534 25.0548 3.53184C24.235 3.33672 22.7117 3.33757 21.9106 3.53374ZM24.804 5.11416C25.6615 5.33965 26.3906 5.78841 27.0723 6.51012C27.7651 7.24354 28.1633 7.9952 28.3629 8.94588C28.5413 9.79584 28.5658 13.1662 28.4001 14.0818C28.055 15.9899 26.5777 17.5846 24.6967 18.0793C21.968 18.797 19.1226 16.9299 18.6007 14.0793C18.4326 13.1606 18.4583 9.79774 18.6401 8.93122C19.0177 7.13238 20.445 5.58254 22.1509 5.11943C22.9004 4.91599 24.0418 4.91367 24.804 5.11416ZM22.09 19.6628C22.4921 19.7488 23.1266 19.8191 23.5 19.8191C23.8734 19.8191 24.5079 19.7488 24.91 19.6628C25.8397 19.4639 25.7627 19.4485 25.8972 19.8602C26.0543 20.3407 26.6271 20.9948 27.2374 21.3901C27.5151 21.5701 28.4445 21.9861 29.3028 22.3147C31.5842 23.1879 32.0783 23.5516 32.6101 24.7487C32.7991 25.1745 32.8418 25.5083 32.8801 26.8627L32.9254 28.4711H23.5H14.0746L14.1199 26.8627C14.1582 25.5083 14.2009 25.1745 14.3899 24.7487C14.9178 23.5603 15.4284 23.1799 17.5989 22.3578C19.8083 21.5209 20.5387 21.0227 21.0029 20.0352C21.1397 19.7443 21.2758 19.5064 21.3052 19.5064C21.3348 19.5064 21.688 19.5767 22.09 19.6628Z" fill="#2E2E2E"></path>
</svg>
