<?xml version="1.0" encoding="UTF-8"?>
<svg xmlns="http://www.w3.org/2000/svg" width="47" height="56" viewBox="0 0 47 56" fill="none">
  <path fill-rule="evenodd" clip-rule="evenodd" d="M18.0345 0.394031C16.7432 0.904461 15.7029 1.79094 14.8967 3.06712L14.2567 4.08054L8.57291 4.14628L2.88914 4.21223L1.91347 4.83244C1.27329 5.2395 0.776791 5.76585 0.469097 6.36373L0 7.27502L0.00120912 29.9316C0.00181362 44.1629 0.0759664 52.8609 0.200696 53.321C0.309709 53.7242 0.694578 54.3473 1.05587 54.7062C2.42327 56.064 1.46492 55.9995 20.3026 55.9995H37.394L38.2905 55.5344C38.7985 55.2708 39.437 54.6998 39.7641 54.2164C40.2849 53.4472 40.3518 53.1515 40.4494 51.1913C40.5739 48.6867 40.4621 48.0172 39.8874 47.8302C39.0725 47.5649 38.8899 48.0332 38.8891 50.3912C38.8885 52.202 38.8196 52.7041 38.497 53.247C37.7494 54.5048 38.5907 54.4434 21.1577 54.5123C12.3471 54.5472 4.64443 54.5149 4.04073 54.4407C3.16459 54.333 2.80914 54.168 2.27758 53.6227L1.61202 52.9398V30.171C1.61202 9.06659 1.63721 7.36268 1.95538 6.86424C2.50467 6.00422 3.3665 5.76275 5.88749 5.76275L8.16084 5.76254V8.70873C8.16084 12.0597 8.35509 12.7027 9.54254 13.2807C10.1563 13.5794 11.4036 13.6187 20.302 13.6187H30.3672L31.0491 13.1473C32.1509 12.3855 32.2514 11.994 32.1924 8.69302L32.1396 5.73133L34.6949 5.79872C36.9122 5.85723 37.3251 5.92338 37.8181 6.29944C38.8005 7.04885 38.8837 7.4431 38.8869 11.3549C38.8899 15.0987 38.9677 15.4793 39.7292 15.4793C40.4278 15.4793 40.5427 14.7586 40.4661 10.8569C40.3841 6.6728 40.2831 6.28951 38.9705 5.17934C37.8441 4.2267 36.996 4.10886 31.2689 4.10886H26.0428L25.7917 3.48721C25.3732 2.45043 23.3098 0.652038 22.1241 0.29087C20.7424 -0.130043 19.266 -0.0928317 18.0345 0.394031ZM22.266 2.02145C23.256 2.49343 24.4209 3.72826 24.918 4.83244L25.2903 5.65938L27.7074 5.76275C29.0369 5.8196 30.238 5.94137 30.3765 6.03337C30.7226 6.26326 30.7317 11.3626 30.3865 11.7167C30.205 11.903 27.6717 11.9648 20.225 11.9648C11.476 11.9648 10.268 11.9266 9.98867 11.64C9.73861 11.3833 9.67211 10.8288 9.67211 8.99837C9.67211 5.72884 9.64047 5.76275 12.6999 5.76275H15.1002L15.6509 4.60896C16.5812 2.65965 18.1638 1.63713 20.251 1.63713C21.006 1.63713 21.7626 1.78143 22.266 2.02145ZM19.2435 4.00364C17.1023 4.78737 16.5661 7.50202 18.218 9.19684C19.0678 10.0686 20.0749 10.269 21.2645 9.80278C22.4187 9.35044 23.02 8.48587 23.1264 7.12555C23.1931 6.27235 23.1194 5.9393 22.7373 5.3683C21.7973 3.96312 20.6157 3.50147 19.2435 4.00364ZM20.8184 5.58702C21.4165 5.90995 21.5541 6.16382 21.5577 6.95148C21.5613 7.76395 20.9589 8.45031 20.2419 8.45031C19.5778 8.45031 18.7397 7.58512 18.7397 6.8998C18.7397 6.30481 19.5493 5.34928 20.0535 5.34928C20.232 5.34928 20.5762 5.45616 20.8184 5.58702ZM25.087 18.6461L18.0345 21.1648L17.9756 25.0925C17.9434 27.2529 18.0137 29.7792 18.1318 30.7066C19.1159 38.4282 23.3398 44.4825 30.9064 49.0164L32.2988 49.8508L33.2267 49.3924C34.9745 48.5293 38.0712 46.2691 39.781 44.6088C43.2513 41.2386 45.2983 37.5895 46.3804 32.8451C46.6943 31.4687 46.8049 30.0507 46.8906 26.3028L47 21.5179L46.5216 21.2014C46.0006 20.8567 32.7437 16.0909 32.3691 16.1134C32.243 16.121 28.966 17.2608 25.087 18.6461ZM37.7448 19.6391C40.6466 20.676 43.5519 21.7114 44.2011 21.9396L45.3815 22.3547L45.2878 26.8246C45.205 30.7709 45.1337 31.5276 44.6799 33.2832C44.0945 35.547 43.1102 37.8527 41.9816 39.6037C40.2918 42.2262 36.7514 45.4998 33.7317 47.2325L32.3965 47.9984L31.7642 47.6284C28.4815 45.7064 24.9557 42.6152 23.2729 40.1842C21.573 37.7284 20.3711 34.732 19.8415 31.6293C19.6539 30.5305 19.5457 28.5157 19.5457 26.1217V22.3467L21.6111 21.6004C22.747 21.19 25.5807 20.1656 27.9081 19.324C30.2354 18.4824 32.2138 17.7848 32.3042 17.7737C32.3947 17.7625 34.843 18.6019 37.7448 19.6391ZM5.51794 21.3593C5.45668 21.523 5.43814 21.8255 5.47663 22.0312C5.54192 22.3791 5.87339 22.405 10.2575 22.405C14.4344 22.405 14.992 22.3659 15.1798 22.0605C15.3335 21.8106 15.3188 21.6262 15.1268 21.3887C14.7475 20.92 5.69264 20.8923 5.51794 21.3593ZM31.2169 25.065C30.2495 25.42 29.6952 25.8393 29.101 26.6656C28.0177 28.1721 28.0034 29.9304 29.0623 31.43L29.6797 32.3047L29.2025 34.4872C28.3639 38.3232 28.4497 38.427 32.4642 38.427C36.3867 38.427 36.5023 38.2773 35.6002 34.3617L35.1317 32.3275L35.6992 31.5245C36.9829 29.7081 36.8413 27.8653 35.2917 26.2265C34.0144 24.8759 32.7306 24.51 31.2169 25.065ZM5.57496 25.954C5.35593 26.1785 5.42162 26.9544 5.68236 27.2219C5.85566 27.3997 7.16582 27.47 10.3026 27.47C14.0141 27.47 14.729 27.4206 14.9976 27.1452C15.3762 26.7568 15.4008 26.4012 15.0724 26.0642C14.8106 25.7956 5.83087 25.6914 5.57496 25.954ZM34.0716 27.1775C35.2796 28.3647 35.3185 29.9688 34.1734 31.375L33.5012 32.2005L33.9733 34.2284C34.233 35.3437 34.448 36.3727 34.4512 36.5147C34.4555 36.7051 33.908 36.7731 32.3691 36.7731H30.2814L30.7567 34.7574C31.3394 32.2867 31.3443 31.9791 30.8093 31.4821C29.7937 30.5394 29.5493 29.1228 30.1905 27.8963C30.9792 26.3877 32.9053 26.0309 34.0716 27.1775ZM5.68236 30.8191C5.33699 31.1735 5.38374 31.9516 5.75934 32.0994C5.93465 32.1685 8.06231 32.2249 10.4876 32.2249C14.6408 32.2249 14.9092 32.2018 15.1056 31.8251C15.3754 31.3078 15.3722 31.2803 14.9976 30.8958C14.729 30.6204 14.0141 30.571 10.3026 30.571C7.16582 30.571 5.85566 30.6413 5.68236 30.8191ZM5.88044 35.5335C5.52439 35.6881 5.42867 35.8719 5.47744 36.3065L5.54131 36.8765H10.2547C14.5049 36.8765 14.9896 36.8413 15.188 36.5186C15.3563 36.2449 15.3339 36.0847 15.0933 35.8376C14.8342 35.5718 14.0322 35.4984 10.563 35.4225C8.03994 35.3675 6.15992 35.412 5.88044 35.5335ZM5.57496 40.4255C5.29649 40.711 5.45547 41.5216 5.83027 41.7275C6.07328 41.8609 8.42501 41.9415 12.0768 41.9415C17.6871 41.9415 17.9508 41.9239 18.3413 41.5233C18.6652 41.191 18.7051 41.0209 18.5358 40.6963C18.3303 40.3025 18.0919 40.2876 12.0158 40.2876C8.54732 40.2876 5.64871 40.3496 5.57496 40.4255ZM5.69244 45.1781C5.35553 45.3193 5.37124 46.1734 5.71622 46.4669C5.91329 46.6348 8.074 46.6861 13.301 46.6474C20.009 46.5976 20.6284 46.5633 20.8325 46.2313C20.9947 45.9675 20.9947 45.7715 20.8325 45.5077C20.6282 45.175 20.0191 45.143 13.2772 45.1093C9.24412 45.089 5.83107 45.1201 5.69244 45.1781Z" fill="#2E2E2E"></path>
</svg>
