<?xml version="1.0" encoding="UTF-8"?>
<svg xmlns="http://www.w3.org/2000/svg" width="56" height="52" viewBox="0 0 56 52" fill="none">
  <path fill-rule="evenodd" clip-rule="evenodd" d="M25.5704 0.240817C22.44 1.07894 19.7712 3.62672 18.8359 6.66956C18.6563 7.25412 18.4561 8.3127 18.3909 9.02216L18.2725 10.3121L17.4932 10.6302L16.7136 10.9484L16.0405 10.1867C14.7768 8.75719 14.5992 8.71235 9.95457 8.65381C6.11537 8.60555 5.85602 8.6212 5.20633 8.94161C4.30465 9.38611 3.91071 9.95714 3.81394 10.9598C3.73879 11.7397 3.81968 11.9484 5.50072 15.3074L7.26641 18.836L6.38275 20.6189C5.89679 21.5995 5.41672 22.6331 5.31603 22.9156L5.13281 23.4292L2.77932 23.4502C0.792258 23.4678 0.393732 23.5133 0.220994 23.7423C-0.0786365 24.1391 -0.0712686 31.5024 0.229017 31.7505C0.345922 31.8472 1.5433 32.4698 2.88967 33.1341L5.33764 34.342L5.98815 35.7911C6.95024 37.9344 8.37979 39.964 10.199 41.7698L11.8056 43.3644L12.4896 47.4537C12.8995 49.9032 13.2652 51.6342 13.4016 51.77C13.5835 51.9514 14.4183 51.997 17.5436 51.997C22.1618 51.997 21.8013 52.1811 22.1247 49.6576L22.3303 48.0521L22.8392 48.1541C25.1351 48.6137 29.6282 48.6626 31.7698 48.2514C32.8293 48.0481 32.858 48.0759 33.0106 49.459C33.1722 50.9233 33.367 51.7016 33.6103 51.8552C33.7295 51.9305 35.5679 51.9931 37.6958 51.9946C41.0034 51.9967 41.5951 51.9602 41.7763 51.7426C41.8929 51.6026 42.2939 49.6661 42.6674 47.4392L43.3464 43.3903L44.9722 41.7829C48.2803 38.5124 50.056 34.8865 50.6906 30.1064C50.7579 29.5996 50.8728 29.3319 51.023 29.3319C51.1491 29.3319 51.6601 29.1799 52.1585 28.9942C54.0989 28.2712 55.7344 26.1245 55.952 24.0155C56.0466 23.0972 56.0249 22.9994 55.6699 22.7518C55.1677 22.4016 54.9372 22.4133 54.5393 22.8096C54.3302 23.0178 54.2105 23.3568 54.2082 23.7472C54.2009 25.0006 53.1473 26.5785 51.8852 27.2265C50.7697 27.799 50.7859 27.8174 50.4509 25.5895C50.1112 23.33 48.9789 20.5796 47.4851 18.3851C46.4979 16.9351 43.9861 14.4015 42.428 13.2842C41.7074 12.7675 40.3247 11.9293 39.3554 11.4217L37.593 10.4987L37.5651 9.14413C37.4795 4.97522 34.5246 1.30559 30.3896 0.23299C29.1794 -0.0808973 26.7572 -0.0769839 25.5704 0.240817ZM29.5673 1.85885C31.1977 2.20274 32.3688 2.82823 33.5195 3.96964C36.6312 7.05666 36.6528 11.898 33.5684 14.9697C32.0598 16.4721 30.1531 17.2576 28.0146 17.2576C25.8813 17.2576 23.9689 16.4716 22.47 14.9788C19.3699 11.8915 19.3874 7.06726 22.5098 3.96964C23.6382 2.8504 24.8353 2.20078 26.387 1.86569C27.7589 1.56942 28.1908 1.56844 29.5673 1.85885ZM27.0036 6.61901C25.0542 8.54473 24.5762 9.10483 24.5762 9.46324C24.5762 10.2043 25.0841 10.4171 26.8533 10.4171H28.4023L26.8986 11.9442C26.0256 12.8309 25.3949 13.6067 25.3949 13.7941C25.3949 14.1919 25.8859 14.6566 26.3064 14.6566C26.4904 14.6566 27.612 13.6693 29.036 12.2537C30.9688 10.3318 31.453 9.76147 31.453 9.40584C31.453 8.76094 31.0456 8.62349 29.1337 8.62349H27.4478L29.0411 7.03073C30.0778 5.99433 30.6343 5.31405 30.6343 5.08332C30.6343 4.71449 30.0817 4.22091 29.6688 4.22091C29.538 4.22091 28.3386 5.30003 27.0036 6.61901ZM14.114 10.7884C14.4201 10.9926 14.8914 11.5429 15.1616 12.0112C15.4318 12.4795 15.8006 12.903 15.9814 12.9522C16.1686 13.0031 16.7837 12.8276 17.4105 12.5446C18.6448 11.9872 18.8456 11.9494 18.8456 12.2734C18.8456 12.3976 19.1454 13.0955 19.5118 13.8246C19.9755 14.7475 20.5006 15.4714 21.24 16.2078L22.3021 17.2656H21.5927C20.3672 17.2656 19.7669 18.0352 20.4264 18.761C20.6812 19.0415 21.1329 19.0592 27.9861 19.0592C34.5387 19.0592 35.3051 19.032 35.5743 18.7894C36.3164 18.1207 35.6708 17.2656 34.4236 17.2656H33.7012L34.6057 16.4002C35.5412 15.505 36.4035 14.2684 36.9299 13.0668C37.0967 12.6856 37.2609 12.3738 37.2945 12.3738C37.5137 12.3738 39.9293 13.6988 40.9495 14.3786C42.5775 15.4636 45.2725 18.1733 46.3209 19.7796C48.6312 23.3191 49.4777 27.6204 48.6498 31.6134C47.8304 35.5656 45.5768 39.2509 42.4552 41.7436L41.7505 42.3063L41.0635 46.2955L40.3764 50.2849L37.6529 50.3296L34.9292 50.3741L34.836 49.8404C34.785 49.5467 34.6581 48.7055 34.5541 47.9709C34.2892 46.0967 34.1613 46.0018 32.4002 46.3717C31.5611 46.5479 29.982 46.6869 28.2602 46.7359C25.9241 46.8026 25.1522 46.7602 23.4579 46.4724C21.1852 46.0863 20.8744 46.1448 20.7401 46.9849C20.6938 47.2753 20.5602 48.1366 20.4433 48.8989L20.2309 50.2849L17.4917 50.3296C15.985 50.3542 14.7515 50.3175 14.7505 50.248C14.7495 50.1786 14.4548 48.4342 14.0955 46.3715C13.7363 44.3088 13.4424 42.5667 13.4424 42.5002C13.4424 42.4335 13.2057 42.1767 12.9163 41.9295C11.465 40.6891 10.5371 39.737 9.69424 38.6231C8.74852 37.3736 7.42147 34.9665 7.06158 33.8485C6.87165 33.258 6.7423 33.169 4.33985 31.9757L1.81739 30.7228V27.9076V25.0924H4.0024C6.45348 25.0924 6.51684 25.0656 6.89326 23.8694C7.26707 22.6817 7.8886 21.3146 8.54123 20.2448C8.89555 19.6642 9.18536 19.0838 9.18536 18.9554C9.18536 18.827 8.3328 17.0319 7.29064 14.9665C5.45422 11.3263 5.40395 11.1988 5.65708 10.814L5.91824 10.4171H9.73796C13.4406 10.4171 13.5747 10.4285 14.114 10.7884ZM12.6522 22.5346C11.8688 23.3653 12.4633 24.6032 13.6458 24.6032C14.3115 24.6032 14.916 24.0211 14.916 23.3803C14.916 23.1802 14.7632 22.8233 14.5766 22.587C14.1234 22.013 13.1688 21.9871 12.6522 22.5346Z" fill="#2E2E2E"></path>
</svg>
