<?xml version="1.0" encoding="UTF-8"?>
<svg xmlns="http://www.w3.org/2000/svg" width="56" height="49" viewBox="0 0 56 49" fill="none">
  <path fill-rule="evenodd" clip-rule="evenodd" d="M26.4995 0.174505C24.918 0.787243 23.7921 1.8089 23.1308 3.23148C22.7944 3.95527 22.7509 4.2204 22.7509 5.5495C22.7509 6.89876 22.7905 7.1313 23.1423 7.85367C24.0495 9.71661 25.7484 10.9093 27.7331 11.0771C31.6198 11.4056 34.6805 7.50835 33.4436 3.80591C32.9175 2.23154 31.8612 1.04437 30.3941 0.379037C29.524 -0.0155905 27.2929 -0.132649 26.4995 0.174505ZM29.6798 1.90695C32.1791 2.95991 32.8286 6.33561 30.9049 8.27531C29.3511 9.8421 26.8031 9.77835 25.3315 8.13581C24.6051 7.32526 24.3443 6.64377 24.3326 5.52706C24.3035 2.73365 27.1185 0.827835 29.6798 1.90695ZM9.20242 6.16167C7.70951 6.79713 6.79621 7.7832 6.29711 9.29854C5.99377 10.2194 6.08562 11.7852 6.49854 12.733C6.9347 13.7336 7.9305 14.7323 8.96797 15.2091C10.1988 15.7751 11.7534 15.7892 12.9163 15.2454C14.5593 14.4769 15.6777 12.9094 15.8356 11.1539C16.0105 9.20821 14.8649 7.19419 13.0833 6.31532C11.9447 5.75361 10.3128 5.689 9.20242 6.16167ZM43.3475 6.1771C40.9859 7.15646 39.7666 9.63513 40.4612 12.0444C40.8988 13.5624 41.7666 14.5676 43.2273 15.2493C44.3653 15.7801 45.9584 15.7787 47.0859 15.2458C48.2153 14.7118 49.0711 13.866 49.5573 12.8027C49.9054 12.0413 49.9657 11.7309 49.9662 10.695C49.9668 9.65758 49.9098 9.36285 49.5764 8.67837C48.4284 6.32118 45.6705 5.21376 43.3475 6.1771ZM12.6159 8.01503C14.5103 9.16204 14.7175 11.7162 13.0341 13.1691C11.9683 14.089 10.7186 14.2345 9.47798 13.5831C7.19014 12.3818 7.2226 9.00439 9.53298 7.85123C10.4932 7.37199 11.6558 7.43374 12.6159 8.01503ZM46.9458 8.05848C49.4972 9.86039 48.2458 13.9823 45.1474 13.9823C42.8373 13.9823 41.2677 11.4581 42.2576 9.3347C42.8396 8.08621 43.8163 7.52793 45.3157 7.58667C46.1839 7.62069 46.4247 7.69044 46.9458 8.05848ZM25.4562 12.2842C24.4426 12.5239 23.0927 13.3047 22.2559 14.1354C20.874 15.5075 20.5735 16.3136 19.4218 21.7388C18.8749 24.3148 18.4275 26.6063 18.4275 26.8311C18.4275 27.0558 18.5233 27.3199 18.6406 27.4181C18.9235 27.6548 19.5396 27.6449 19.7784 27.3998C19.8837 27.2918 20.4255 25.0486 20.9821 22.4152C21.5405 19.7741 22.1425 17.2953 22.3245 16.8874C22.7954 15.8321 23.6897 14.9195 24.7859 14.3754L25.7217 13.9109H28.2762C30.8118 13.9109 30.8369 13.914 31.6735 14.3281C32.7399 14.8561 33.6593 15.7788 34.1115 16.7746C34.34 17.2778 34.7896 19.1974 35.3905 22.2341C35.9001 24.8099 36.4077 27.0621 36.5184 27.239C36.7748 27.6485 37.4256 27.6657 37.7786 27.2723C38.0302 26.992 38.0109 26.8501 37.077 22.0911C36.3048 18.1566 36.0241 16.995 35.6438 16.1603C34.8063 14.3222 33.0663 12.842 31.1329 12.3229C30.2991 12.0991 26.3528 12.0722 25.4562 12.2842ZM8.5199 16.4955C6.87007 16.9427 5.38339 18.1543 4.61964 19.6741C4.21239 20.4843 4.11076 20.919 3.26181 25.4794C2.72444 28.3664 2.69822 28.619 2.90361 28.9349C3.1993 29.39 3.88339 29.4004 4.1666 28.9542C4.27887 28.7772 4.69618 26.9071 5.09393 24.7984C5.52911 22.4905 5.93324 20.7345 6.10887 20.3871C6.55297 19.5095 7.54891 18.6165 8.47368 18.2669C9.19264 17.9951 9.50988 17.9661 11.2691 18.0115C13.0844 18.0585 13.3146 18.095 13.9681 18.4396C15.1676 19.0722 15.9487 20.114 16.3801 21.6565C16.4063 21.7501 16.5828 21.9292 16.7723 22.0544C17.0562 22.2419 17.1831 22.2516 17.4921 22.1097C17.9967 21.8779 18.0783 21.4352 17.7833 20.5282C17.1353 18.5361 15.5374 17.0147 13.5428 16.491C12.4554 16.2055 9.57962 16.208 8.5199 16.4955ZM42.5285 16.4983C41.072 16.8929 39.8345 17.8178 38.9779 19.1519C38.0384 20.615 37.9027 21.8516 38.65 22.1382C39.2162 22.3553 39.6132 22.007 39.915 21.0285C40.2749 19.8616 41.5457 18.5759 42.6956 18.2155C43.9339 17.8271 47.0156 17.9276 47.9392 18.3864C48.7684 18.7982 49.6472 19.6713 50.0236 20.4577C50.1841 20.7928 50.6336 22.7599 51.0423 24.9164C51.4828 27.2403 51.8602 28.875 51.991 29.0256C52.3118 29.3954 52.9623 29.3461 53.2317 28.9316C53.4407 28.61 53.4041 28.323 52.6714 24.5394C51.7625 19.8467 51.5102 19.1701 50.2283 17.9888C48.7726 16.6472 47.6042 16.2643 45.0114 16.2786C43.9848 16.2842 42.9954 16.3718 42.5285 16.4983ZM27.7407 18.9418C27.5711 18.9861 26.7254 20.5466 25.213 23.6062C23.963 26.1349 22.8976 28.2442 22.8456 28.2937C22.7936 28.3431 20.5205 28.7072 17.7943 29.1025C13.3218 29.7511 12.8131 29.8522 12.585 30.1362C12.446 30.3093 12.3303 30.5563 12.328 30.6852C12.3256 30.814 13.9886 32.5596 16.0236 34.5641L19.7235 38.2088L18.8495 43.3281C18.0135 48.2245 17.9863 48.4593 18.2234 48.7237C18.7212 49.2783 18.6868 49.293 25.754 45.5244L28.0484 44.3009L28.8017 44.7088C33.033 47.0008 36.984 49 37.2819 49C37.7652 49 37.9885 48.755 37.9916 48.221C37.993 47.9813 37.6289 45.634 37.1824 43.0048L36.3704 38.2246L40.0148 34.636C43.2181 31.4817 43.6591 30.9943 43.6591 30.608C43.6591 30.3662 43.5648 30.0895 43.4494 29.993C43.3342 29.8965 40.9899 29.4866 38.2401 29.0821L33.2404 28.3467L30.9724 23.7957C28.9811 19.8001 28.3899 18.7926 28.0749 18.8585C28.0312 18.8677 27.881 18.9051 27.7407 18.9418ZM29.9841 25.5953C31.083 27.841 32.0258 29.5908 32.2109 29.728C32.4353 29.8942 33.7887 30.1462 36.7133 30.5663C39.0132 30.8966 40.9257 31.1957 40.9633 31.2312C41.0008 31.2665 39.5755 32.7224 37.796 34.4662C34.5794 37.6184 34.5608 37.6401 34.651 38.1374C35.2676 41.5392 36.0705 46.5702 35.9968 46.5702C35.9447 46.5702 34.2009 45.6697 32.1214 44.5692C30.0421 43.4686 28.1994 42.5695 28.0264 42.571C27.8536 42.5726 25.9899 43.4952 23.8849 44.6212C21.7799 45.7472 20.0409 46.6564 20.0205 46.6415C20.0001 46.6267 20.3032 44.7464 20.6938 42.4631C21.0846 40.1798 21.4043 38.1327 21.4043 37.914C21.4043 37.5835 20.8607 36.9815 18.1945 34.3592L14.9847 31.2022L19.2931 30.5804C21.6627 30.2385 23.7311 29.8771 23.8896 29.7773C24.0561 29.6724 24.9808 27.9285 26.0789 25.6481C27.1246 23.477 28.0022 21.7005 28.0293 21.7005C28.0562 21.7005 28.9359 23.4531 29.9841 25.5953ZM0.2835 30.848C0.127575 31.0052 0 31.2698 0 31.4359C0 31.6274 0.693159 32.4767 1.89563 33.7584L3.79125 35.779L1.89818 37.7801C-0.0891611 39.8808 -0.249906 40.1723 0.2835 40.7101C0.56048 40.9894 0.755954 40.996 8.7569 40.996C17.7804 40.996 17.577 41.0157 17.577 40.1405C17.577 39.2509 17.8411 39.2808 9.96773 39.2808H2.80396L4.30793 37.6983C5.39856 36.5507 5.81176 36.0177 5.81176 35.7587C5.81176 35.4979 5.40437 34.9804 4.30098 33.8395L2.79007 32.2773H6.49811C10.0171 32.2773 10.2205 32.2627 10.4895 31.9914C10.6454 31.8342 10.773 31.5769 10.773 31.4197C10.773 31.2625 10.6454 31.0052 10.4895 30.848C10.2171 30.5733 10.0171 30.5621 5.38651 30.5621C0.755954 30.5621 0.555944 30.5733 0.2835 30.848ZM45.5018 30.848C45.3459 31.0052 45.2183 31.2625 45.2183 31.4197C45.2183 31.5769 45.3459 31.8342 45.5018 31.9914C45.7709 32.2627 45.9743 32.2773 49.4932 32.2773H53.2013L51.6903 33.8395C50.6079 34.9588 50.1796 35.5003 50.1796 35.7497C50.1796 35.9967 50.6163 36.5609 51.6813 37.6894L53.183 39.2808H46.0215C38.1504 39.2808 38.4143 39.2509 38.4143 40.1405C38.4143 41.0157 38.2109 40.996 47.2344 40.996C55.2354 40.996 55.4308 40.9894 55.7078 40.7101C56.2411 40.1724 56.0803 39.8807 54.0944 37.7801L52.2025 35.779L54.097 33.761C56.1166 31.6094 56.3149 31.2357 55.6762 30.7847C55.4062 30.5939 54.6773 30.5621 50.5732 30.5621C45.9743 30.5621 45.7741 30.5734 45.5018 30.848Z" fill="#2E2E2E"></path>
</svg>
