<?xml version="1.0" encoding="UTF-8"?>
<svg xmlns="http://www.w3.org/2000/svg" width="49" height="49" viewBox="0 0 49 49" fill="none">
  <path fill-rule="evenodd" clip-rule="evenodd" d="M44.8225 0.0602624C44.6383 0.0831509 43.8105 0.176603 42.9831 0.267934C35.2754 1.1186 27.5242 4.72371 21.413 10.3002C19.2348 12.2879 16.8055 15.1027 15.1699 17.534C14.8114 18.0668 14.4787 18.5271 14.4304 18.557C14.3822 18.5869 12.9367 18.5164 11.2182 18.4006C9.49969 18.2848 8.01134 18.1887 7.91075 18.1872C7.51589 18.1809 7.23579 18.6272 6.58093 20.3056C5.06801 24.1834 3.98379 26.957 3.13278 29.1261C2.639 30.385 2.23443 31.5443 2.23387 31.7025C2.23253 32.0621 2.65865 32.4756 3.0304 32.4756C3.21829 32.4756 4.02588 31.9398 5.47024 30.8567C6.65762 29.9663 7.65834 29.2397 7.69396 29.2421C7.72968 29.2445 8.20559 29.3399 8.75172 29.454L9.74452 29.6616L11.3736 31.2908L13.0027 32.9201L12.6253 33.6189C12.4178 34.0033 12.2153 34.3554 12.1752 34.4012C12.1351 34.4469 11.8171 34.3842 11.4684 34.2616C10.5534 33.9399 9.11667 33.9581 8.1376 34.3038C7.01017 34.7018 6.04228 35.4451 5.36118 36.4358C4.96408 37.0133 0 47.9329 0 48.2289C0 48.5171 0.48328 49 0.771863 49C0.894888 49 1.86424 48.6044 2.92591 48.121C3.98759 47.6375 6.48894 46.5006 8.48446 45.5944C10.48 44.6883 12.3152 43.8078 12.5627 43.6378C13.5525 42.958 14.2963 41.9892 14.6944 40.8614C15.0459 39.8656 15.0582 38.4562 14.724 37.4902C14.5945 37.116 14.5316 36.7695 14.5845 36.7202C14.6371 36.6709 14.961 36.4532 15.304 36.2361L15.9276 35.8417L17.632 37.5491L19.3365 39.2564L19.5438 40.2483C19.6578 40.7939 19.7531 41.2694 19.7555 41.3051C19.7579 41.3407 19.0314 42.3416 18.1411 43.5291C17.0053 45.0441 16.5224 45.7767 16.5224 45.9849C16.5224 46.3502 16.9436 46.7673 17.311 46.7659C17.4606 46.7653 18.6128 46.3607 19.8715 45.8668C22.0403 45.0157 24.8136 43.9314 28.6909 42.4183C30.3691 41.7633 30.8153 41.4832 30.8091 41.0883C30.8075 40.9877 30.7115 39.4991 30.5956 37.7804C30.4799 36.0617 30.4094 34.6161 30.4393 34.5679C30.4691 34.5195 30.9294 34.1868 31.4622 33.8283C33.8924 32.1929 36.7067 29.7637 38.6955 27.5844C45.0594 20.6109 48.6709 11.9081 48.9764 2.81023C49.047 0.71119 48.9792 0.332468 48.4937 0.111287C48.2356 -0.00639329 45.6474 -0.0423451 44.8225 0.0602624ZM47.3344 2.65292C47.3344 5.63869 46.5128 10.0202 45.3199 13.3962C45.0077 14.2795 44.6969 15.1656 44.6292 15.3651C44.5614 15.5646 44.4766 15.7279 44.4405 15.7279C44.4045 15.7279 41.8659 13.2181 38.7992 10.1505C34.1321 5.48205 33.2588 4.56025 33.4409 4.4946C33.5607 4.4515 34.0104 4.28034 34.4402 4.11421C38.0812 2.70695 42.8397 1.71415 46.1343 1.6744L47.3344 1.65989V2.65292ZM37.678 11.3747L43.7061 17.4049L43.0695 18.6599C42.1027 20.5655 40.5826 22.8446 38.9189 24.8833C37.8447 26.1997 34.7779 29.2374 33.4355 30.3146C29.8297 33.2082 25.8484 35.5368 21.2193 37.4594L20.2785 37.8502L18.8946 36.4659L17.5105 35.0817L20.9343 32.9208C23.4154 31.3549 24.3875 30.6827 24.4647 30.4793C24.5252 30.3203 24.5569 29.0726 24.538 27.5997C24.5052 25.0657 24.4981 24.9944 24.2502 24.7467C23.998 24.4947 23.9707 24.4926 20.9321 24.4926C18.0166 24.4926 17.8574 24.5034 17.6461 24.7159C17.4631 24.9 15.9619 27.5486 14.2457 30.7152C14.055 31.0674 13.873 31.3562 13.8413 31.3572C13.8097 31.3583 13.191 30.7647 12.4665 30.0382L11.1491 28.7173L11.5395 27.7772C15.736 17.6715 22.0191 10.3787 30.3005 6.002C30.9809 5.64238 31.563 5.34728 31.5938 5.34628C31.6247 5.34516 34.3626 8.05806 37.678 11.3747ZM30.3096 10.932C27.3888 11.2591 25.0305 13.3119 24.2762 16.184C24.0307 17.1187 24.0318 18.6954 24.2785 19.6357C25.1101 22.8053 27.8279 24.909 31.0911 24.909C35.0204 24.909 38.0888 21.8379 38.0888 17.9051C38.0888 13.6883 34.4913 10.4636 30.3096 10.932ZM32.1741 12.6134C34.2311 13.0425 35.9531 14.7647 36.3821 16.822C37.0031 19.7999 34.9671 22.7373 31.9449 23.2244C28.3285 23.8072 25.1897 20.6681 25.7724 17.0512C26.2593 14.0297 29.1977 11.9927 32.1741 12.6134ZM30.3705 14.0603C28.2612 14.4875 26.8736 16.492 27.2482 18.5709C27.5498 20.2455 28.8007 21.4784 30.4706 21.7474C31.6486 21.9372 32.7827 21.6182 33.6556 20.8516C33.9612 20.5833 34.0495 20.4208 34.0495 20.1266C34.0495 19.3442 33.3195 19.0647 32.6366 19.5856C31.7356 20.2729 30.9387 20.3635 30.0192 19.8832C29.5375 19.6315 29.3649 19.4589 29.1133 18.9771C28.4666 17.739 28.9203 16.4221 30.198 15.8287C30.9912 15.4602 31.8085 15.593 32.6366 16.2247C33.3208 16.7465 34.0495 16.4661 34.0495 15.6808C34.0495 14.7095 31.8813 13.7543 30.3705 14.0603ZM11.0432 20.0277C12.297 20.1195 13.3365 20.2084 13.3532 20.2251C13.3699 20.2419 13.0791 20.807 12.7068 21.4809C11.9062 22.9307 10.786 25.2417 10.2124 26.6277C9.58454 28.1443 9.77588 28.015 8.53347 27.7625C7.94235 27.6424 7.35033 27.5713 7.21804 27.6046C7.08564 27.638 6.51272 28.0222 5.9447 28.4584C5.3768 28.8945 4.91206 29.2126 4.91206 29.1653C4.91206 28.9084 8.53861 19.8591 8.6412 19.8599C8.70852 19.8604 9.78939 19.9359 11.0432 20.0277ZM22.8829 27.9258L22.88 29.7402L21.7945 30.399C18.4404 32.4343 13.8735 35.1908 13.7125 35.277C13.52 35.3801 13.7503 34.9293 14.9725 32.8106C15.3091 32.2272 16.2817 30.4812 17.1338 28.9307L18.6831 26.1115H20.7845H22.8857L22.8829 27.9258ZM10.5026 35.7152C10.8313 35.7775 11.1414 35.8698 11.1919 35.9203C11.2425 35.9709 11.106 36.3266 10.8889 36.711C10.0092 38.2674 10.7426 39.0064 12.2752 38.1081C12.6474 37.8898 12.9984 37.74 13.0551 37.775C13.2327 37.8848 13.4182 39.0507 13.3363 39.5426C13.1812 40.4752 12.8324 41.1855 12.2379 41.7795C11.7015 42.3156 11.3389 42.5028 7.15932 44.4025C4.68376 45.5276 2.63431 46.4242 2.60484 46.3948C2.57548 46.3654 3.47104 44.3182 4.59501 41.8456C6.38087 37.9167 6.70317 37.2835 7.1505 36.8241C7.73448 36.2245 8.12119 35.9999 8.95669 35.7749C9.6868 35.5784 9.76539 35.5753 10.5026 35.7152ZM28.9748 38.053C29.0697 39.3605 29.1306 40.447 29.1101 40.4674C29.0607 40.5169 20.2101 43.9873 19.9438 44.0616C19.8102 44.099 20.0374 43.7158 20.5858 42.9789C21.0525 42.3516 21.4324 41.7289 21.4301 41.5952C21.4276 41.4613 21.3334 40.9106 21.2208 40.3714C20.9835 39.2364 20.8551 39.4134 22.3696 38.7864C23.7554 38.2127 26.0662 37.0924 27.5158 36.2916C28.1896 35.9193 28.7547 35.6285 28.7716 35.6454C28.7884 35.6623 28.8799 36.7457 28.9748 38.053Z" fill="#2E2E2E"></path>
</svg>
