<?xml version="1.0" encoding="UTF-8"?>
<svg xmlns="http://www.w3.org/2000/svg" width="44" height="50" viewBox="0 0 44 50" fill="none">
  <path fill-rule="evenodd" clip-rule="evenodd" d="M5.96033 0.153844C5.12317 0.332188 4.00689 0.807642 3.27363 1.29814C1.85865 2.24465 0.598747 4.07477 0.195673 5.76904C0.00445823 6.57286 0.00135682 6.9064 0.000678409 26.3649L0 46.1439L1.91496 48.0719C3.35145 49.5182 3.88875 50 4.06524 50C4.24036 50 4.7357 49.564 6.00268 48.2948L7.70482 46.5896L9.41141 48.2948C10.662 49.5444 11.1795 50 11.3487 50C11.5185 50 12.0344 49.542 13.2995 48.2686L15.0195 46.5373L16.7471 48.2686C18.0337 49.5581 18.5348 50 18.7099 50C18.8853 50 19.382 49.5602 20.6651 48.2686L22.3851 46.5373L24.1127 48.2686C25.3806 49.5393 25.9017 50 26.071 50C26.2412 50 26.8045 49.4954 28.2213 48.0743L30.1409 46.1485V34.9866V23.8247H36.8549C42.7749 23.8247 43.5945 23.8067 43.7844 23.6726L43.9999 23.5206V15.0726C43.9999 5.49694 44.0304 5.92297 43.2233 4.23446C42.2191 2.1336 40.2854 0.630665 37.9648 0.147593C37.307 0.0106608 35.5082 -0.00574739 21.9313 0.00138246C8.82129 0.00812163 6.54192 0.0299019 5.96033 0.153844ZM31.8827 1.6225C31.0577 2.24748 30.3052 3.19282 29.7977 4.24198C28.9597 5.97415 29.0349 3.91391 29.003 26.025L28.9747 45.6594L27.5236 47.1192L26.0727 48.579L24.3452 46.8478C23.0798 45.5797 22.5561 45.1165 22.3876 45.1165C22.2191 45.1165 21.6956 45.5794 20.4311 46.8467L18.7048 48.5767L16.9784 46.8467C15.7936 45.6593 15.1854 45.1165 15.0394 45.1165C14.8921 45.1165 14.3067 45.649 13.1336 46.8502L11.4404 48.5838L10.3998 47.5583C9.82738 46.9942 9.04158 46.2141 8.65353 45.8246C8.20781 45.3773 7.86977 45.1165 7.73564 45.1165C7.58997 45.1165 6.97999 45.6609 5.79567 46.8478L4.06814 48.579L2.61557 47.1176L1.16299 45.6562L1.16445 26.17C1.166 4.56761 1.11812 6.14839 1.81553 4.69878C2.34304 3.60264 3.53084 2.41401 4.65197 1.86042C6.10193 1.1444 5.28822 1.18181 19.6108 1.17312L32.486 1.1654L31.8827 1.6225ZM37.8457 1.31181C38.2188 1.39053 38.8948 1.63763 39.3479 1.861C40.4688 2.41362 41.6565 3.60196 42.1843 4.69878C42.8525 6.08754 42.8339 5.80235 42.8354 14.6689L42.8369 22.654L36.5131 22.6289L30.1893 22.6038V14.5949C30.1893 7.11951 30.2011 6.54375 30.3673 5.95119C31.2986 2.62888 34.544 0.615624 37.8457 1.31181ZM13.7136 6.62706C9.54225 7.30889 6.34179 10.3572 5.5024 14.4479C5.24878 15.6835 5.30179 17.7264 5.61773 18.8924C6.06074 20.5276 6.86 21.9283 8.08822 23.2218C10.128 25.3701 13.0726 26.4752 15.9606 26.1765C20.4816 25.709 23.9982 22.3619 24.7168 17.8424C24.8821 16.8022 24.7934 15.0113 24.5245 13.9601C23.4374 9.71038 19.7344 6.7305 15.3612 6.58624C14.7215 6.56514 13.9801 6.5835 13.7136 6.62706ZM17.2026 7.99795C21.9845 9.24841 24.7507 14.3058 23.2413 19.0389C22.007 22.9097 18.1309 25.4512 14.1544 24.9972C12.1194 24.7649 10.5335 23.9892 9.06126 22.5061C7.30281 20.7348 6.49337 18.8106 6.49337 16.4018C6.49337 12.1514 9.39717 8.65663 13.6014 7.84705C14.5365 7.66695 16.2039 7.73678 17.2026 7.99795ZM13.9104 8.59276C12.1783 8.86672 10.561 9.74008 9.32942 11.0669C8.5791 11.8752 8.03695 12.807 7.63756 13.9746C7.34284 14.8363 7.32491 14.9681 7.32113 16.3041C7.31648 17.969 7.43995 18.5453 8.08483 19.8692C10.2564 24.3269 15.8906 25.6354 19.8467 22.6009C21.1255 21.6199 22.2022 19.9866 22.6454 18.3552C22.911 17.3771 22.8897 15.3222 22.6034 14.3215C21.9772 12.1324 20.5181 10.3414 18.5407 9.33514C17.2851 8.69609 15.2851 8.37544 13.9104 8.59276ZM16.718 9.90582C19.5961 10.6454 21.7003 13.3718 21.7075 16.371C21.7123 18.3561 20.7298 20.4257 19.2128 21.6265C18.0288 22.5637 16.6166 23.0535 15.089 23.0566C12.5026 23.062 10.3059 21.7111 9.16079 19.4112C8.58995 18.2647 8.39409 17.3385 8.45466 16.0731C8.60653 12.9033 10.8713 10.3375 14.0298 9.75707C14.6393 9.64504 15.9951 9.72015 16.718 9.90582ZM14.77 10.8117C14.5814 10.9386 14.4405 11.3007 14.4405 11.6584C14.4405 11.9599 14.4096 12.0067 14.2104 12.0067C13.8643 12.0067 13.1857 12.2725 12.826 12.5491C11.8174 13.3242 11.6383 14.974 12.4466 16.0419C12.7477 16.4398 13.4814 16.8582 14.0341 16.9473L14.4405 17.0128V18.3294V19.6461L14.174 19.58C13.5922 19.4359 13.0847 18.863 13.084 18.3494C13.0835 17.9666 12.8651 17.7366 12.5022 17.7366C12.0574 17.7366 11.891 17.9899 11.9557 18.5683C12.0778 19.6593 12.933 20.5617 14.0168 20.7431C14.406 20.8082 14.4181 20.8218 14.4656 21.247C14.5457 21.9629 14.9278 22.2395 15.388 21.9145C15.5612 21.7924 15.6035 21.6679 15.6035 21.2797C15.6035 20.8781 15.6331 20.7969 15.7797 20.7969C16.2095 20.7969 16.9988 20.4684 17.3608 20.1388C17.9522 19.6003 18.1654 19.1168 18.1688 18.3063C18.1714 17.7206 18.1293 17.5472 17.8753 17.0959C17.5224 16.469 16.9934 16.0608 16.3303 15.9039C16.0638 15.8408 15.7913 15.7746 15.7246 15.7567C15.6355 15.7328 15.6035 15.3848 15.6035 14.4387V13.1531L15.9565 13.2109C16.5108 13.3016 17.0572 13.9302 17.0572 14.4772C17.0572 14.978 17.7329 15.2198 18.0732 14.8408C18.4021 14.4747 18.0879 13.3686 17.4789 12.7483C17.126 12.389 16.3252 12.0088 15.9184 12.0077C15.6066 12.0067 15.6035 12.002 15.6035 11.5335C15.6035 11.1991 15.5515 11.0129 15.4262 10.8986C15.2401 10.7289 14.9502 10.6905 14.77 10.8117ZM14.4405 14.4972C14.4405 15.9738 14.4426 15.9703 13.7716 15.6253C12.879 15.1664 12.8769 13.8388 13.7681 13.3572C14.4282 13.0004 14.4405 13.0212 14.4405 14.4972ZM16.3728 17.1663C17.3038 17.6694 17.2334 18.97 16.2486 19.4633C15.6398 19.7683 15.6035 19.7004 15.6035 18.2605C15.6035 17.0031 15.6061 16.9878 15.8231 16.9878C15.9438 16.9878 16.1912 17.0681 16.3728 17.1663ZM4.67358 31.0089C4.40754 31.1966 4.38777 31.6414 4.63539 31.8672C4.79792 32.0155 5.66261 32.0289 15.0873 32.0289C24.9182 32.0289 25.3689 32.0212 25.5223 31.8502C25.738 31.6101 25.7246 31.2897 25.4889 31.0522C25.2975 30.8593 25.1659 30.8568 15.092 30.8568C6.01431 30.8568 4.86518 30.8736 4.67358 31.0089ZM4.61853 35.9189C4.42179 36.138 4.41317 36.4223 4.59566 36.6739C4.73037 36.8595 4.9496 36.8635 15.0704 36.8635C25.1913 36.8635 25.4105 36.8595 25.5452 36.6739C25.734 36.4137 25.7176 36.0954 25.5055 35.9019C25.3429 35.7537 24.4783 35.7403 15.0536 35.7403C5.22271 35.7403 4.77195 35.748 4.61853 35.9189Z" fill="#2E2E2E"></path>
</svg>
