<svg width="10" height="15" viewBox="0 0 10 15" fill="none" xmlns="http://www.w3.org/2000/svg">
<path fill-rule="evenodd" clip-rule="evenodd" d="M4.50059 14.5005C4.36798 14.5005 4.2408 14.4478 4.14704 14.354C4.05327 14.2603 4.00059 14.1331 4.00059 14.0005L4.00059 2.20749L0.85459 5.35449C0.760704 5.44837 0.633365 5.50112 0.50059 5.50112C0.367815 5.50112 0.240476 5.44837 0.14659 5.35449C0.0527037 5.2606 -4.11428e-05 5.13326 -4.11312e-05 5.00049C-4.11195e-05 4.86771 0.0527038 4.74037 0.14659 4.64649L4.14659 0.646488C4.19304 0.599925 4.24821 0.562982 4.30896 0.537776C4.3697 0.512569 4.43482 0.499594 4.50059 0.499594C4.56636 0.499594 4.63148 0.512569 4.69222 0.537776C4.75297 0.562982 4.80814 0.599925 4.85459 0.646488L8.85459 4.64649C8.94848 4.74037 9.00122 4.86771 9.00122 5.00049C9.00122 5.13326 8.94848 5.2606 8.85459 5.35449C8.7607 5.44837 8.63337 5.50112 8.50059 5.50112C8.36781 5.50112 8.24048 5.44837 8.14659 5.35449L5.00059 2.20749L5.00059 14.0005C5.00059 14.1331 4.94791 14.2603 4.85414 14.354C4.76037 14.4478 4.6332 14.5005 4.50059 14.5005Z" fill="white"/>
</svg>
