<svg width="26" height="16" viewBox="0 0 26 16" fill="none" xmlns="http://www.w3.org/2000/svg">
<path d="M24.25 9C24.8023 9 25.25 8.55228 25.25 8C25.25 7.44772 24.8023 7 24.25 7L24.25 9ZM1.04289 7.29289C0.652369 7.68342 0.652369 8.31658 1.04289 8.7071L7.40685 15.0711C7.79738 15.4616 8.43054 15.4616 8.82107 15.0711C9.21159 14.6805 9.21159 14.0474 8.82107 13.6569L3.16421 8L8.82107 2.34314C9.21159 1.95262 9.21159 1.31946 8.82107 0.928931C8.43054 0.538406 7.79738 0.538406 7.40686 0.928931L1.04289 7.29289ZM24.25 7L1.75 7L1.75 9L24.25 9L24.25 7Z" fill="white"/>
</svg>
