<svg id="Layer_1" data-name="Layer 1" xmlns="http://www.w3.org/2000/svg" xmlns:xlink="http://www.w3.org/1999/xlink" viewBox="0 0 168.03 47.12"><defs><style>.cls-1{fill:url(#linear-gradient);}.cls-2{fill:url(#Безымянный_градиент_41);}.cls-3{fill:url(#linear-gradient-2);}.cls-4{fill:url(#linear-gradient-3);}.cls-5{fill:url(#linear-gradient-4);}.cls-6{fill:url(#Безымянный_градиент_70);}.cls-7{fill:url(#linear-gradient-5);}.cls-8{fill:#231f20;}.cls-9{fill:url(#Безымянный_градиент_45);}.cls-10{fill:url(#linear-gradient-6);}.cls-11{fill:url(#Безымянный_градиент_70-2);}.cls-12{fill:url(#Безымянный_градиент_45-2);}.cls-13{fill:url(#Безымянный_градиент_45-3);}.cls-14{fill:url(#Безымянный_градиент_45-4);}.cls-15{fill:url(#Безымянный_градиент_45-5);}.cls-16{fill:url(#Безымянный_градиент_45-6);}.cls-17{fill:#4560d6;}.cls-18{fill:#fff;}</style><linearGradient id="linear-gradient" x1="34.35" y1="37.85" x2="7.3" y2="4.41" gradientUnits="userSpaceOnUse"><stop offset="0" stop-color="#08556c"/><stop offset="1" stop-color="#000101"/></linearGradient><linearGradient id="Безымянный_градиент_41" x1="4.66" y1="21.69" x2="36.79" y2="21.69" gradientUnits="userSpaceOnUse"><stop offset="0" stop-color="#f2911a"/><stop offset="1" stop-color="#bd1e2d"/></linearGradient><linearGradient id="linear-gradient-2" x1="14.28" y1="12.89" x2="28.63" y2="12.89" xlink:href="#linear-gradient"/><linearGradient id="linear-gradient-3" x1="22.74" y1="16.73" x2="7.07" y2="35.95" gradientUnits="userSpaceOnUse"><stop offset="0" stop-color="#59bec4"/><stop offset="1" stop-color="#0e72b3"/></linearGradient><linearGradient id="linear-gradient-4" x1="29.6" y1="43.59" x2="29.6" y2="43.59" gradientUnits="userSpaceOnUse"><stop offset="0" stop-color="#ba2926"/><stop offset="1" stop-color="#fdea1e"/></linearGradient><linearGradient id="Безымянный_градиент_70" x1="-3.54" y1="44.29" x2="72.89" y2="29.91" gradientUnits="userSpaceOnUse"><stop offset="0.13" stop-color="#2caae1"/><stop offset="0.84" stop-color="#2a368c"/></linearGradient><linearGradient id="linear-gradient-5" x1="2.55" y1="43.84" x2="37.89" y2="34.09" xlink:href="#linear-gradient-3"/><linearGradient id="Безымянный_градиент_45" x1="15.03" y1="36.8" x2="51.06" y2="17.3" gradientUnits="userSpaceOnUse"><stop offset="0" stop-color="#b26a20"/><stop offset="0.77" stop-color="#fdcb24"/></linearGradient><linearGradient id="linear-gradient-6" x1="11.18" y1="44.71" x2="36.46" y2="21.88" gradientUnits="userSpaceOnUse"><stop offset="0" stop-color="#e84822"/><stop offset="0.77" stop-color="#fdea1e"/></linearGradient><linearGradient id="Безымянный_градиент_70-2" x1="26.45" y1="4.12" x2="12.29" y2="36.38" xlink:href="#Безымянный_градиент_70"/><linearGradient id="Безымянный_градиент_45-2" x1="20.45" y1="6.05" x2="25.22" y2="1.73" xlink:href="#Безымянный_градиент_45"/><linearGradient id="Безымянный_градиент_45-3" x1="29.88" y1="8.64" x2="34.65" y2="4.33" xlink:href="#Безымянный_градиент_45"/><linearGradient id="Безымянный_градиент_45-4" x1="37.68" y1="16.1" x2="42.46" y2="11.79" xlink:href="#Безымянный_градиент_45"/><linearGradient id="Безымянный_градиент_45-5" x1="41.91" y1="25.19" x2="46.68" y2="20.88" xlink:href="#Безымянный_градиент_45"/><linearGradient id="Безымянный_градиент_45-6" x1="41.26" y1="34.27" x2="46.03" y2="29.96" xlink:href="#Безымянный_градиент_45"/></defs><title>logo</title><path class="cls-1" d="M11.69,26.22C31.63,20,34.19,33.46,33.68,39c5-3.72,5.13-10.09,5.13-10.09A11.15,11.15,0,0,1,39,30.08C38.58,22.15,30.75,20.54,23,22c-4.66.85-11.34,4.27-11.34,4.27Z" transform="translate(-0.14 0.12)"/><path class="cls-2" d="M4.66,21.58a13.35,13.35,0,0,1,3.09-1.09c1.87-.53,3.77-1,5.68-1.34a66.6,66.6,0,0,1,6.75-1A32.55,32.55,0,0,1,26.5,18a7.85,7.85,0,0,1,4.66,1.69,5.56,5.56,0,0,1,1.6,3.06,11.77,11.77,0,0,1-.15,4.14,12.63,12.63,0,0,1-1,3.73l0,.06a2.35,2.35,0,0,1,.32-.4c4.11-5.13,5.35-11,4.64-13.55l.24.4C34.48,12.78,26.62,11,16.46,14.49,11.36,16.23,4.66,21.58,4.66,21.58Z" transform="translate(-0.14 0.12)"/><path class="cls-3" d="M27.3,18.08s-1-11.48-13-8h0S19,7.75,23.08,7.7C23.08,7.7,31.9,7.29,27.3,18.08Z" transform="translate(-0.14 0.12)"/><path class="cls-4" d="M27.5,18.28c1.95-4.72,1.67-7.65-.51-9.35a11.71,11.71,0,0,1,1.48.82,11.53,11.53,0,0,0-1.89-1.09c2.21,1.71,2.5,4.64.52,9.36C22.7,28.52,8.91,34.93,2.4,32.92,8.48,35.67,23,29.18,27.5,18.28Z" transform="translate(-0.14 0.12)"/><path class="cls-5" d="M29.6,43.59" transform="translate(-0.14 0.12)"/><path class="cls-6" d="M38.81,28.86s-.13,6.69-5.51,10.36A25.28,25.28,0,0,1,11,42.1a30.08,30.08,0,0,1-8.67-5.37S9.13,47.26,19.73,47c13.72-.34,17.89-9.4,18.61-12A10.84,10.84,0,0,0,38.81,28.86Z" transform="translate(-0.14 0.12)"/><path class="cls-7" d="M33.36,39.19a13.4,13.4,0,0,0,5.64-9,10.38,10.38,0,0,0-.2-1.63S38.64,35.3,33.26,39A25.58,25.58,0,0,1,13.2,42.82,25.16,25.16,0,0,0,33.36,39.19Z" transform="translate(-0.14 0.12)"/><path class="cls-8" d="M36.48,38.54l-.06.08Z" transform="translate(-0.14 0.12)"/><path class="cls-9" d="M35.81,34.59A14.16,14.16,0,0,0,39,22.73a18.76,18.76,0,0,0-2.49-6c1.51,5.41-6,27.49-32.11,19.22a10.44,10.44,0,0,1-3.25-1.75A24.83,24.83,0,0,0,2.4,36.79C10.82,42.6,27.76,43.16,35.81,34.59Z" transform="translate(-0.14 0.12)"/><path class="cls-10" d="M37.1,17.67l-.54-.9c1.27,4.56-3.89,21-21.15,21.05C32.3,37.84,38,22.77,37.1,17.67Z" transform="translate(-0.14 0.12)"/><path class="cls-11" d="M26.78,8.73c2.21,1.7,2.49,4.64.52,9.35C22.2,30.23,4.55,36.9.14,31.41a27.06,27.06,0,0,0,1.11,2.83,23.55,23.55,0,0,0,6.81,1.7C31.75,38.81,40,14.8,26.78,8.73Z" transform="translate(-0.14 0.12)"/><polygon class="cls-12" points="23.57 0 24.45 1.77 26.4 2.05 24.99 3.43 25.32 5.38 23.57 4.46 21.82 5.38 22.16 3.43 20.74 2.05 22.7 1.77 23.57 0"/><polygon class="cls-13" points="33 2.6 33.88 4.37 35.83 4.65 34.42 6.03 34.75 7.97 33 7.05 31.25 7.97 31.58 6.03 30.17 4.65 32.13 4.37 33 2.6"/><polygon class="cls-14" points="40.8 10.06 41.68 11.83 43.64 12.11 42.22 13.49 42.55 15.44 40.8 14.52 39.05 15.44 39.39 13.49 37.97 12.11 39.93 11.83 40.8 10.06"/><polygon class="cls-15" points="45.03 19.14 45.91 20.91 47.86 21.2 46.45 22.57 46.78 24.52 45.03 23.6 43.28 24.52 43.61 22.57 42.2 21.2 44.16 20.91 45.03 19.14"/><polygon class="cls-16" points="44.38 28.23 45.26 30 47.21 30.28 45.8 31.66 46.13 33.6 44.38 32.69 42.63 33.6 42.96 31.66 41.55 30.28 43.5 30 44.38 28.23"/><path d="M56.85,11.22H65V21.61H63.87V12.29H58v9.32H56.85Z" transform="translate(-0.14 0.12)"/><path d="M67.31,17.78a3.78,3.78,0,0,1,3.67-4c2.27,0,3.58,1.8,3.58,4.06a3.27,3.27,0,0,1,0,.4H68.46a2.68,2.68,0,0,0,2.7,2.55,3.17,3.17,0,0,0,2.42-1.08l.71.64a3.94,3.94,0,0,1-3.16,1.43A3.81,3.81,0,0,1,67.31,17.78Zm6.09-.46A2.51,2.51,0,0,0,71,14.74a2.65,2.65,0,0,0-2.5,2.58Z" transform="translate(-0.14 0.12)"/><path d="M76.56,13.94H77.7v1.54a3.46,3.46,0,0,1,2.94-1.7,3.74,3.74,0,0,1,3.66,4,3.75,3.75,0,0,1-3.66,4,3.48,3.48,0,0,1-2.94-1.63V24H76.56Zm6.57,3.83a2.76,2.76,0,0,0-2.7-3,2.87,2.87,0,0,0-2.77,3,2.86,2.86,0,0,0,2.77,3A2.71,2.71,0,0,0,83.13,17.77Z" transform="translate(-0.14 0.12)"/><path d="M86.41,13.94h3.71c1.52,0,2.5.75,2.5,1.91a1.83,1.83,0,0,1-1.27,1.77A2,2,0,0,1,93,19.52c0,1.29-1.1,2.09-2.79,2.09H86.41Zm3.5,3.29c.92,0,1.56-.43,1.56-1.23,0-.64-.54-1.08-1.53-1.08H87.55v2.31Zm.19,3.4c1.1,0,1.77-.49,1.77-1.29S91.2,18.15,90,18.15h-2.4v2.48Z" transform="translate(-0.14 0.12)"/><path d="M95.1,13.94h1.14v2.88h2.05c1.66,0,3,.68,3,2.3s-1.14,2.49-2.89,2.49H95.1Zm3.22,6.66c1.14,0,1.84-.49,1.84-1.46s-.72-1.35-1.89-1.35h-2V20.6Zm4.37-6.66h1.14v7.67h-1.14Z" transform="translate(-0.14 0.12)"/><path d="M106.38,13.94h1.15V20l4.55-6.06h1.11v7.67h-1.14V15.54l-4.57,6.07h-1.1ZM107.66,11l.79-.16a1.34,1.34,0,0,0,2.61,0l.78.16a2.11,2.11,0,0,1-4.18,0Z" transform="translate(-0.14 0.12)"/><path d="M56.66,29.76h3.71c1.52,0,2.5.76,2.5,1.92a1.83,1.83,0,0,1-1.27,1.76,2,2,0,0,1,1.69,1.9c0,1.29-1.1,2.09-2.79,2.09H56.66Zm3.5,3.3c.92,0,1.56-.43,1.56-1.23,0-.64-.54-1.09-1.53-1.09H57.8v2.32Zm.19,3.39c1.1,0,1.77-.49,1.77-1.29S61.45,34,60.2,34H57.8v2.47Z" transform="translate(-0.14 0.12)"/><path d="M65.35,29.76h1.14v6.07L71,29.76h1.12v7.67H71V31.37l-4.56,6.06h-1.1Z" transform="translate(-0.14 0.12)"/><path d="M74,36.47l.57-.85a4,4,0,0,0,2.57,1c1,0,1.9-.48,1.9-1.37S78.33,34,77.08,34h-1v-.93h1c1,0,1.7-.52,1.7-1.32s-.71-1.15-1.66-1.15a3.82,3.82,0,0,0-2.33.78l-.56-.81a4.81,4.81,0,0,1,3-1c1.72,0,2.78.86,2.78,2a1.82,1.82,0,0,1-1.23,1.76,1.9,1.9,0,0,1,1.42,1.89c0,1.23-1.14,2.31-3,2.31A4.86,4.86,0,0,1,74,36.47Z" transform="translate(-0.14 0.12)"/><path d="M81.83,33.61a4,4,0,1,1,4,4A3.93,3.93,0,0,1,81.83,33.61Zm6.82,0a2.9,2.9,0,0,0-2.85-3,2.84,2.84,0,0,0-2.8,3,2.88,2.88,0,0,0,2.83,3A2.84,2.84,0,0,0,88.65,33.61Z" transform="translate(-0.14 0.12)"/><path d="M91.88,29.76h3.71c1.53,0,2.51.76,2.51,1.92a1.83,1.83,0,0,1-1.28,1.76,2,2,0,0,1,1.69,1.9c0,1.29-1.1,2.09-2.79,2.09H91.88Zm3.5,3.3c.92,0,1.56-.43,1.56-1.23,0-.64-.54-1.09-1.53-1.09H93v2.32Zm.19,3.39c1.1,0,1.77-.49,1.77-1.29S96.67,34,95.43,34H93v2.47Z" transform="translate(-0.14 0.12)"/><path d="M100.57,29.76h1.14v2.88h2.05c1.66,0,3,.68,3,2.3s-1.15,2.49-2.9,2.49h-3.32Zm3.22,6.66c1.14,0,1.84-.49,1.84-1.45s-.71-1.35-1.88-1.35h-2v2.8Zm4.38-6.66h1.14v7.67h-1.14Z" transform="translate(-0.14 0.12)"/><path d="M111.86,29.76H113v6.07l4.55-6.07h1.12v7.67h-1.15V31.37L113,37.43h-1.1Zm1.27-2.9.79-.17a1.34,1.34,0,0,0,2.61,0l.79.17a2.12,2.12,0,0,1-4.19,0Z" transform="translate(-0.14 0.12)"/><path d="M132.28,37.43h-6.61V29.76h1.14v6.66h4.3V29.76h1.14v6.66h1.16l-.18,2.92h-.95Z" transform="translate(-0.14 0.12)"/><path d="M134.5,33.61a3.79,3.79,0,0,1,3.68-4c2.27,0,3.58,1.81,3.58,4.06a3.11,3.11,0,0,1,0,.4h-6.08a2.68,2.68,0,0,0,2.7,2.56,3.16,3.16,0,0,0,2.42-1.09l.71.64a4,4,0,0,1-3.16,1.44A3.82,3.82,0,0,1,134.5,33.61Zm6.1-.46a2.52,2.52,0,0,0-2.45-2.59,2.65,2.65,0,0,0-2.49,2.59Z" transform="translate(-0.14 0.12)"/><path d="M143.76,29.76h1.14v3.31h4.42V29.76h1.14v7.67h-1.14V34.08H144.9v3.35h-1.14Z" transform="translate(-0.14 0.12)"/><path d="M154.87,30.77h-2.75v-1h6.65v1H156v6.66h-1.15Z" transform="translate(-0.14 0.12)"/><path d="M160.43,29.76h1.14v1.55a3.45,3.45,0,0,1,2.94-1.71,3.75,3.75,0,0,1,3.66,4,3.75,3.75,0,0,1-3.66,4A3.45,3.45,0,0,1,161.57,36V39.8h-1.14ZM167,33.59a2.77,2.77,0,0,0-2.7-3,3,3,0,0,0,0,5.95A2.72,2.72,0,0,0,167,33.59Z" transform="translate(-0.14 0.12)"/><rect class="cls-17" x="120.86" y="9.12" width="40" height="15" rx="7.5" ry="7.5"/><path class="cls-18" d="M126.42,17.2a2.73,2.73,0,1,1,2.71,2.72A2.7,2.7,0,0,1,126.42,17.2Zm4.65,0a2,2,0,0,0-1.94-2,1.93,1.93,0,0,0-1.91,2,2,2,0,0,0,1.93,2A1.93,1.93,0,0,0,131.07,17.2Z" transform="translate(-0.14 0.12)"/><path class="cls-18" d="M133.27,14.58H134v.91a2,2,0,0,1,1.79-1,1.91,1.91,0,0,1,2,2.09V19.8h-.78V16.75a1.39,1.39,0,0,0-1.44-1.58A1.54,1.54,0,0,0,134,16.81v3h-.77Z" transform="translate(-0.14 0.12)"/><path class="cls-18" d="M139.56,12.43h.77V19.8h-.77Z" transform="translate(-0.14 0.12)"/><path class="cls-18" d="M142.16,12.58h.89v.86h-.89Zm.05,2H143V19.8h-.78Z" transform="translate(-0.14 0.12)"/><path class="cls-18" d="M144.8,14.58h.77v.91a2,2,0,0,1,1.79-1,1.91,1.91,0,0,1,2,2.09V19.8h-.78V16.75a1.39,1.39,0,0,0-1.44-1.58,1.54,1.54,0,0,0-1.57,1.64v3h-.77Z" transform="translate(-0.14 0.12)"/><path class="cls-18" d="M153.32,19.25a2.19,2.19,0,0,0,1.65-.74l.48.43a2.67,2.67,0,0,1-2.15,1,2.6,2.6,0,0,1-2.61-2.72,2.58,2.58,0,0,1,2.51-2.73,2.49,2.49,0,0,1,2.43,2.77c0,.07,0,.15,0,.27h-4.14A1.83,1.83,0,0,0,153.32,19.25Zm1.52-2.37a1.71,1.71,0,0,0-1.66-1.76,1.81,1.81,0,0,0-1.7,1.76Z" transform="translate(-0.14 0.12)"/></svg>