<svg enable-background="new 0 0 512 512" height="512" viewBox="0 0 512 512" width="512" xmlns="http://www.w3.org/2000/svg"><path d="m369.214 159.814c-91.389-55.601-48.533-134.078-46.693-137.34 2.668-4.642 2.659-10.353-.023-14.987-2.681-4.634-7.629-7.487-12.983-7.487-47.043 0-83.881 13.366-109.49 39.729-43.759 45.044-41.729 115.151-40.862 145.088.097 3.317.179 6.182.179 8.311 0 22.228 3.566 42.748 6.713 60.854 2.028 11.668 3.779 21.744 4.091 29.664.333 8.482-1.216 10.424-1.281 10.503-.221.263-2.062 1.241-7.036 1.241-5.674 0-9.856-1.854-13.563-6.009-14.476-16.233-15.477-60.554-12.709-84.667.495-4.252-.85-8.512-3.697-11.708-2.846-3.196-6.922-5.024-11.201-5.024-38.945 0-68.047 63.688-68.047 120.632 0 26.769 5.385 52.991 16.004 77.94 10.266 24.119 24.904 45.885 43.512 64.696 38.749 39.175 89.842 60.75 143.865 60.75 54.242 0 105.321-21.27 143.831-59.889 38.41-38.521 59.564-89.482 59.564-143.499 0-68.921-53.927-126.746-90.174-148.798z" fill="#fff" xmlns="http://www.w3.org/2000/svg"/></svg>